<svg width="20" height="20" viewBox="0 0 20 20" fill="none" xmlns="http://www.w3.org/2000/svg">
<path d="M10 20C8.6 20 7.29165 19.7375 6.075 19.2125C4.85835 18.6875 3.8 17.975 2.9 17.075C2 16.175 1.29167 15.1125 0.775 13.8875C0.258335 12.6625 0 11.35 0 9.95C0 8.55 0.258335 7.24585 0.775 6.0375C1.29167 4.82915 2 3.775 2.9 2.875C3.8 1.975 4.85835 1.27084 6.075 0.7625C7.29165 0.254165 8.6 0 10 0C11.4 0 12.7084 0.254165 13.925 0.7625C15.1417 1.27084 16.2 1.975 17.1 2.875C18 3.775 18.7084 4.82915 19.225 6.0375C19.7416 7.24585 20 8.55 20 9.95C20 11.35 19.7416 12.6625 19.225 13.8875C18.7084 15.1125 18 16.175 17.1 17.075C16.2 17.975 15.1417 18.6875 13.925 19.2125C12.7084 19.7375 11.4 20 10 20ZM10 18.55C10.5834 17.95 11.0708 17.2625 11.4625 16.4875C11.8541 15.7125 12.175 14.7917 12.425 13.725H7.6C7.83335 14.725 8.14585 15.625 8.5375 16.425C8.92915 17.225 9.41665 17.9333 10 18.55ZM7.875 18.25C7.45835 17.6166 7.1 16.9334 6.8 16.2C6.5 15.4667 6.25 14.6417 6.05 13.725H2.3C2.93334 14.9083 3.66665 15.8375 4.5 16.5125C5.33335 17.1875 6.45835 17.7666 7.875 18.25ZM12.15 18.225C13.35 17.8417 14.4292 17.2666 15.3875 16.5C16.3458 15.7333 17.1167 14.8084 17.7 13.725H13.975C13.7584 14.625 13.5041 15.4416 13.2125 16.175C12.9208 16.9083 12.5666 17.5917 12.15 18.225ZM1.8 12.225H5.775C5.725 11.775 5.69585 11.3708 5.6875 11.0125C5.67915 10.6542 5.675 10.3 5.675 9.95C5.675 9.53335 5.68335 9.1625 5.7 8.8375C5.71665 8.5125 5.75 8.15 5.8 7.75H1.8C1.68333 8.15 1.60416 8.50835 1.5625 8.825C1.52084 9.14165 1.5 9.51665 1.5 9.95C1.5 10.3833 1.52084 10.7709 1.5625 11.1125C1.60416 11.4542 1.68333 11.825 1.8 12.225ZM7.325 12.225H12.7C12.7667 11.7084 12.8083 11.2875 12.825 10.9625C12.8417 10.6375 12.85 10.3 12.85 9.95C12.85 9.61665 12.8417 9.29585 12.825 8.9875C12.8083 8.67915 12.7667 8.26665 12.7 7.75H7.325C7.25835 8.26665 7.21665 8.67915 7.2 8.9875C7.18335 9.29585 7.175 9.61665 7.175 9.95C7.175 10.3 7.18335 10.6375 7.2 10.9625C7.21665 11.2875 7.25835 11.7084 7.325 12.225ZM14.2 12.225H18.2C18.3167 11.825 18.3958 11.4542 18.4375 11.1125C18.4792 10.7709 18.5 10.3833 18.5 9.95C18.5 9.51665 18.4792 9.14165 18.4375 8.825C18.3958 8.50835 18.3167 8.15 18.2 7.75H14.225C14.275 8.33335 14.3084 8.77915 14.325 9.0875C14.3417 9.39585 14.35 9.68335 14.35 9.95C14.35 10.3166 14.3375 10.6625 14.3125 10.9875C14.2875 11.3125 14.25 11.725 14.2 12.225ZM13.95 6.25H17.7C17.15 5.1 16.3958 4.14165 15.4375 3.375C14.4791 2.60834 13.375 2.06666 12.125 1.75C12.5416 2.36666 12.8959 3.03335 13.1875 3.75C13.4791 4.46665 13.7333 5.3 13.95 6.25ZM7.6 6.25H12.45C12.2667 5.36665 11.9583 4.5125 11.525 3.6875C11.0917 2.8625 10.5834 2.13334 10 1.5C9.46665 1.95 9.01665 2.54167 8.65 3.275C8.28335 4.00835 7.93335 5 7.6 6.25ZM2.3 6.25H6.075C6.25835 5.35 6.49165 4.54585 6.775 3.8375C7.05835 3.12915 7.41665 2.44167 7.85 1.775C6.6 2.09167 5.50835 2.625 4.575 3.375C3.64165 4.125 2.88334 5.08335 2.3 6.25Z" fill="#0F0F4D"/>
</svg>
